<svg xmlns="http://www.w3.org/2000/svg" width="720" height="180" viewBox="0 0 720 180" role="img" aria-labelledby="title desc">
  <title id="title">FabGrid logo</title>
  <desc id="desc">A fast data grid mark with a FabGrid wordmark.</desc>
  <defs>
    <linearGradient id="fg-mark-gradient" x1="24" y1="24" x2="156" y2="156" gradientUnits="userSpaceOnUse">
      <stop offset="0" stop-color="#0ea5e9"/>
      <stop offset="0.54" stop-color="#2563eb"/>
      <stop offset="1" stop-color="#14b8a6"/>
    </linearGradient>
    <linearGradient id="fg-accent-gradient" x1="48" y1="46" x2="138" y2="136" gradientUnits="userSpaceOnUse">
      <stop offset="0" stop-color="#ffffff" stop-opacity="0.92"/>
      <stop offset="1" stop-color="#dbeafe" stop-opacity="0.72"/>
    </linearGradient>
    <filter id="fg-shadow" x="-20%" y="-20%" width="140%" height="140%">
      <feDropShadow dx="0" dy="10" stdDeviation="12" flood-color="#0f172a" flood-opacity="0.16"/>
    </filter>
  </defs>

  <rect width="720" height="180" fill="#ffffff"/>

  <g filter="url(#fg-shadow)">
    <path d="M28 62C28 41.01 41.01 28 62 28h72c20.99 0 34 13.01 34 34v56c0 20.99-13.01 34-34 34H62c-20.99 0-34-13.01-34-34V62Z" fill="url(#fg-mark-gradient)"/>
    <path d="M60 58h84M60 86h84M60 114h84M62 56v62M90 56v62M118 56v62M146 56v62" stroke="url(#fg-accent-gradient)" stroke-width="7" stroke-linecap="round"/>
    <path d="M44 132h38M34 108h32M42 84h24" stroke="#bae6fd" stroke-width="8" stroke-linecap="round" opacity="0.9"/>
    <path d="M82 126h64c9.94 0 18-8.06 18-18V78" fill="none" stroke="#ffffff" stroke-width="6" stroke-linecap="round" opacity="0.9"/>
    <path d="M138 72l26 6-18 20-8-26Z" fill="#ffffff" opacity="0.96"/>
  </g>

  <g fill="#0f172a">
    <text x="206" y="94" font-family="Inter, ui-sans-serif, system-ui, -apple-system, BlinkMacSystemFont, 'Segoe UI', sans-serif" font-size="58" font-weight="800">FabGrid</text>
    <text x="209" y="126" font-family="Inter, ui-sans-serif, system-ui, -apple-system, BlinkMacSystemFont, 'Segoe UI', sans-serif" font-size="18" font-weight="600" fill="#475569">Performance-first JavaScript data grid</text>
  </g>

  <g transform="translate(577 67)">
    <rect x="0" y="0" width="82" height="46" rx="10" fill="#f8fafc" stroke="#cbd5e1"/>
    <rect x="10" y="10" width="18" height="10" rx="2" fill="#0ea5e9"/>
    <rect x="32" y="10" width="18" height="10" rx="2" fill="#2563eb"/>
    <rect x="54" y="10" width="18" height="10" rx="2" fill="#14b8a6"/>
    <rect x="10" y="26" width="18" height="10" rx="2" fill="#cbd5e1"/>
    <rect x="32" y="26" width="18" height="10" rx="2" fill="#cbd5e1"/>
    <rect x="54" y="26" width="18" height="10" rx="2" fill="#cbd5e1"/>
  </g>
</svg>
